<?xml version="1.0" encoding="utf-8"?>
<!-- Generator: Adobe Illustrator 14.0.0, SVG Export Plug-In  -->
<!DOCTYPE svg PUBLIC "-//W3C//DTD SVG 1.1//EN" "http://www.w3.org/Graphics/SVG/1.1/DTD/svg11.dtd" [
	<!ENTITY ns_flows "http://ns.adobe.com/Flows/1.0/">
]>
<svg version="1.1"
	 xmlns="http://www.w3.org/2000/svg" xmlns:xlink="http://www.w3.org/1999/xlink" xmlns:a="http://ns.adobe.com/AdobeSVGViewerExtensions/3.0/"
	 x="0px" y="0px" width="229px" height="229px" viewBox="-27.096 -1.214 229 229" enable-background="new -27.096 -1.214 229 229"
	 xml:space="preserve">
<defs>
</defs>
<g>
	<g>
		<path fill="#1C68A9" d="M0,41.146l6.993-7.717l9.807,8.887l-1.775,1.959L6.864,36.88l-3.443,3.8l8.162,7.396l-1.775,1.959
			L0,41.146z"/>
		<path fill="#1C68A9" d="M18.806,40.406l-8.605-10.056l3.223-2.759c1.221-1.046,2.061-1.677,2.517-1.894
			c0.7-0.337,1.458-0.417,2.274-0.24c0.817,0.176,1.568,0.664,2.253,1.464c0.528,0.617,0.861,1.231,1,1.842s0.14,1.182,0.003,1.714
			c-0.136,0.533-0.347,0.988-0.633,1.369c-0.397,0.506-1.051,1.147-1.96,1.927l-1.31,1.12l3.246,3.794L18.806,40.406z
			 M13.665,30.333l2.442,2.853l1.099-0.94c0.792-0.677,1.276-1.183,1.453-1.517c0.177-0.333,0.245-0.678,0.206-1.031
			c-0.041-0.354-0.188-0.679-0.442-0.977c-0.313-0.366-0.678-0.576-1.094-0.633c-0.416-0.055-0.813,0.027-1.189,0.245
			c-0.279,0.16-0.78,0.55-1.504,1.169L13.665,30.333z"/>
		<path fill="#1C68A9" d="M23.981,27.479c-0.737-1.129-1.188-2.186-1.353-3.17c-0.119-0.728-0.109-1.456,0.03-2.185
			c0.139-0.73,0.394-1.371,0.766-1.923c0.493-0.738,1.186-1.398,2.078-1.98c1.616-1.054,3.239-1.391,4.87-1.011
			c1.631,0.381,3.035,1.474,4.212,3.278c1.167,1.789,1.599,3.502,1.296,5.141c-0.304,1.639-1.261,2.983-2.872,4.034
			c-1.631,1.063-3.256,1.407-4.875,1.028C26.517,30.315,25.132,29.244,23.981,27.479z M26.213,25.916
			c0.819,1.256,1.726,2.02,2.722,2.293s1.936,0.123,2.818-0.453s1.397-1.37,1.544-2.382s-0.199-2.16-1.038-3.444
			c-0.829-1.271-1.723-2.039-2.681-2.304c-0.959-0.267-1.895-0.102-2.808,0.494c-0.913,0.595-1.442,1.391-1.588,2.388
			S25.381,24.641,26.213,25.916z"/>
		<path fill="#1C68A9" d="M40.08,25.076l-5.7-11.944l8.762-4.181l0.964,2.021l-6.376,3.041l1.264,2.648l5.933-2.83l0.96,2.012
			l-5.933,2.831l1.551,3.251l6.602-3.15l0.96,2.014L40.08,25.076z"/>
		<path fill="#1C68A9" d="M47.026,7.419l2.503-0.849l1.809,5.335c0.539-0.247,0.868-0.52,0.986-0.82
			c0.118-0.301,0.203-1.054,0.252-2.26c0.06-1.531,0.295-2.553,0.707-3.062c0.407-0.506,1.188-0.956,2.345-1.348
			c0.056-0.019,0.176-0.063,0.36-0.131l0.635,1.872l-0.358,0.111c-0.512,0.174-0.865,0.365-1.059,0.574
			c-0.193,0.209-0.318,0.469-0.376,0.781c-0.058,0.312-0.092,0.924-0.104,1.836c-0.005,0.485-0.048,0.903-0.126,1.254
			c-0.079,0.351-0.301,0.731-0.665,1.141c0.613-0.03,1.183,0.137,1.71,0.497c0.528,0.361,1.159,0.91,1.893,1.646l2.856,2.863
			l-2.944,0.998l-2.578-2.738c-0.038-0.038-0.116-0.109-0.233-0.217c-0.044-0.035-0.215-0.196-0.513-0.483
			c-0.53-0.506-0.924-0.803-1.182-0.886c-0.258-0.085-0.599-0.058-1.024,0.079l1.861,5.49l-2.504,0.849L47.026,7.419z"/>
		<path fill="#1C68A9" d="M65.255,15.778l-2.28-10.757l-3.801,0.806l-0.465-2.19l10.179-2.158l0.465,2.19l-3.792,0.804l2.28,10.757
			L65.255,15.778z"/>
		<path fill="#1C68A9" d="M72.312,0.971l2.465-0.213l0.759,8.779l4.527-9.235l2.625-0.227l1.139,13.186l-2.465,0.213l-0.745-8.608
			l-4.533,9.063l-2.634,0.229L72.312,0.971z"/>
		<path fill="#1C68A9" d="M86.573,13.225L87.091,0l4.239,0.166c1.606,0.063,2.65,0.17,3.133,0.321
			c0.743,0.229,1.354,0.684,1.833,1.368s0.699,1.554,0.658,2.605c-0.031,0.812-0.204,1.489-0.517,2.03
			c-0.314,0.542-0.701,0.962-1.163,1.261c-0.461,0.299-0.927,0.489-1.394,0.573c-0.636,0.102-1.551,0.129-2.748,0.083L89.411,8.34
			l-0.195,4.988L86.573,13.225z M89.645,2.341l-0.147,3.753l1.446,0.057c1.041,0.041,1.74-0.001,2.097-0.126
			c0.356-0.124,0.641-0.33,0.851-0.617c0.211-0.287,0.324-0.625,0.339-1.017c0.018-0.481-0.105-0.884-0.373-1.207
			c-0.268-0.324-0.614-0.533-1.039-0.629c-0.313-0.071-0.946-0.126-1.898-0.164L89.645,2.341z"/>
		<path fill="#1C68A9" d="M99.14,7.255c0.227-1.329,0.614-2.411,1.161-3.247c0.407-0.613,0.909-1.142,1.506-1.583
			c0.598-0.441,1.221-0.738,1.87-0.89c0.862-0.207,1.818-0.223,2.87-0.042c1.901,0.323,3.321,1.18,4.26,2.566
			c0.939,1.387,1.227,3.143,0.864,5.267c-0.358,2.106-1.206,3.658-2.542,4.654c-1.336,0.997-2.951,1.333-4.848,1.01
			c-1.919-0.327-3.345-1.179-4.275-2.556C99.075,11.058,98.786,9.33,99.14,7.255z M101.841,7.623
			c-0.251,1.478-0.105,2.654,0.439,3.531c0.546,0.879,1.337,1.406,2.376,1.583c1.04,0.177,1.956-0.056,2.751-0.699
			c0.795-0.643,1.321-1.721,1.579-3.233c0.255-1.495,0.121-2.666-0.402-3.512c-0.523-0.847-1.321-1.361-2.396-1.544
			c-1.074-0.184-2.004,0.042-2.789,0.674C102.617,5.055,102.097,6.122,101.841,7.623z"/>
		<path fill="#1C68A9" d="M116.6,3.789l4.988,1.583c0.988,0.313,1.711,0.589,2.169,0.826c0.46,0.237,0.839,0.549,1.139,0.935
			c0.299,0.386,0.507,0.838,0.623,1.358c0.116,0.52,0.087,1.052-0.086,1.597c-0.187,0.591-0.517,1.083-0.988,1.476
			c-0.472,0.395-1.016,0.628-1.634,0.704c0.689,0.466,1.153,1.032,1.391,1.701c0.237,0.67,0.241,1.368,0.009,2.096
			c-0.182,0.574-0.49,1.09-0.927,1.549c-0.436,0.458-0.934,0.776-1.493,0.956c-0.56,0.179-1.187,0.2-1.88,0.063
			c-0.435-0.088-1.457-0.381-3.066-0.88l-4.247-1.348L116.6,3.789z M116.86,11.705l-1.07,3.374l2.333,0.74
			c0.908,0.287,1.492,0.445,1.753,0.471c0.396,0.05,0.754-0.021,1.074-0.213c0.32-0.191,0.552-0.512,0.693-0.959
			c0.12-0.38,0.131-0.729,0.033-1.051c-0.098-0.321-0.299-0.597-0.604-0.826c-0.305-0.23-1.031-0.526-2.178-0.891L116.86,11.705z
			 M118.452,6.688l-0.925,2.917l1.651,0.524c0.981,0.312,1.597,0.49,1.845,0.538c0.447,0.086,0.834,0.042,1.159-0.129
			c0.326-0.171,0.555-0.461,0.685-0.868c0.123-0.39,0.117-0.74-0.019-1.052c-0.135-0.312-0.405-0.56-0.809-0.744
			c-0.24-0.108-0.954-0.351-2.14-0.727L118.452,6.688z"/>
		<path fill="#1C68A9" d="M135.063,25.191l-2.612-1.204l0.22-3.208l-4.754-2.189l-2.239,2.277l-2.547-1.174l10.17-9.886l2.539,1.17
			L135.063,25.191z M132.833,18.399l0.416-5.216l-3.662,3.721L132.833,18.399z"/>
		<path fill="#1C68A9" d="M136.313,25.969l7.085-11.179l2.232,1.415l-2.788,4.399l4.376,2.771l2.788-4.398l2.233,1.416
			l-7.084,11.178l-2.233-1.415l3.098-4.889l-4.376-2.771l-3.098,4.888L136.313,25.969z"/>
		<path fill="#1C68A9" d="M155.924,23.084l1.898,1.586l-5.654,6.758l9.724-3.353l2.021,1.69l-8.493,10.15l-1.897-1.587l5.544-6.627
			l-9.606,3.228l-2.027-1.695L155.924,23.084z"/>
		<path fill="#1C68A9" d="M157.396,41.832l9.705-8.998l6.601,7.119l-1.642,1.522l-4.804-5.181l-2.151,1.994l4.471,4.82l-1.635,1.518
			l-4.471-4.821l-2.641,2.449l4.973,5.364l-1.635,1.516L157.396,41.832z"/>
	</g>
</g>
<path fill="#1C68A9" d="M28.294,194.383l4.383,2.859c0.869,0.565,1.492,1.023,1.871,1.375c0.379,0.352,0.661,0.753,0.846,1.204
	c0.186,0.452,0.265,0.943,0.238,1.475c-0.027,0.533-0.197,1.038-0.508,1.517c-0.339,0.52-0.788,0.907-1.348,1.159
	c-0.559,0.253-1.147,0.334-1.763,0.242c0.541,0.632,0.835,1.302,0.886,2.01c0.05,0.708-0.134,1.383-0.551,2.022
	c-0.33,0.504-0.764,0.919-1.307,1.244c-0.542,0.325-1.107,0.499-1.695,0.522s-1.196-0.124-1.828-0.442
	c-0.396-0.201-1.303-0.756-2.72-1.667l-3.733-2.433L28.294,194.383z M26.43,202.081l-1.933,2.964l2.05,1.337
	c0.798,0.521,1.319,0.828,1.564,0.923c0.368,0.154,0.731,0.182,1.091,0.082c0.36-0.099,0.669-0.346,0.925-0.739
	c0.217-0.333,0.322-0.667,0.313-1.003s-0.129-0.655-0.362-0.958c-0.232-0.303-0.853-0.781-1.86-1.439L26.43,202.081z
	 M29.305,197.672l-1.67,2.564l1.451,0.945c0.863,0.563,1.407,0.9,1.634,1.012c0.409,0.202,0.793,0.265,1.152,0.186
	c0.36-0.077,0.657-0.296,0.89-0.653c0.224-0.343,0.312-0.683,0.265-1.018c-0.048-0.337-0.241-0.648-0.581-0.934
	c-0.203-0.169-0.825-0.594-1.868-1.273L29.305,197.672z"/>
<path fill="#1C68A9" d="M33.51,213.239l5.787-11.902l8.733,4.245l-0.979,2.014l-6.354-3.089l-1.284,2.639l5.911,2.874l-0.974,2.006
	l-5.911-2.875l-1.576,3.24l6.579,3.198l-0.975,2.006L33.51,213.239z"/>
<path fill="#1C68A9" d="M45.942,219.027l4.245-12.536l2.503,0.849l-1.67,4.934l4.907,1.662l1.67-4.935l2.504,0.849l-4.245,12.535
	l-2.504-0.848l1.856-5.481l-4.906-1.661l-1.857,5.481L45.942,219.027z"/>
<path fill="#1C68A9" d="M62.769,224.024l2.247-10.764l-3.803-0.794l0.457-2.191l10.187,2.126l-0.458,2.191l-3.795-0.792
	l-2.246,10.765L62.769,224.024z"/>
<path fill="#1C68A9" d="M73.44,212.632l2.465,0.212l-0.757,8.779l6.043-8.323l2.625,0.227l-1.138,13.186l-2.464-0.212l0.742-8.607
	l-6.019,8.151l-2.635-0.228L73.44,212.632z"/>
<path fill="#1C68A9" d="M87.278,213.541l9.165-0.363l0.523,13.226l-2.642,0.104l-0.435-10.986l-3.936,0.156l0.224,5.646
	c0.064,1.617,0.054,2.748-0.027,3.394c-0.082,0.645-0.322,1.154-0.722,1.527c-0.399,0.375-1.039,0.579-1.92,0.613
	c-0.309,0.013-0.873,0.005-1.69-0.023l-0.082-2.064l0.588-0.016c0.554-0.021,0.923-0.11,1.108-0.27
	c0.185-0.157,0.265-0.531,0.242-1.121l-0.099-2.271L87.278,213.541z"/>
<path fill="#1C68A9" d="M108.896,224.682l-0.918-5.448l-0.528,0.089c-0.822,0.139-1.38,0.361-1.677,0.667
	c-0.295,0.307-0.746,1.148-1.354,2.526l-1.406,3.157l-3.118,0.525l1.148-2.812c0.452-1.114,0.829-1.905,1.13-2.374
	c0.302-0.47,0.704-0.911,1.208-1.325c-1.235,0.013-2.176-0.264-2.821-0.829c-0.645-0.566-1.043-1.306-1.198-2.22
	c-0.134-0.795-0.054-1.533,0.239-2.215c0.292-0.681,0.745-1.182,1.358-1.501c0.614-0.32,1.567-0.589,2.858-0.807l5.487-0.925
	l2.2,13.051L108.896,224.682z M107.068,213.838l-2.034,0.343c-1.034,0.175-1.709,0.313-2.026,0.416
	c-0.318,0.102-0.571,0.31-0.761,0.622c-0.189,0.313-0.246,0.688-0.172,1.127c0.078,0.457,0.251,0.802,0.523,1.033
	c0.272,0.232,0.586,0.352,0.947,0.358s1.079-0.081,2.153-0.263l1.929-0.325L107.068,213.838z"/>
<path fill="#1C68A9" d="M111.764,210.615l2.527-0.777l3.235,10.528l4.901-1.506l-3.236-10.528l2.526-0.776l3.236,10.527l1.042-0.32
	l1.501,4.885l-2.1,0.646l-0.85-2.762l-8.896,2.735L111.764,210.615z"/>
<path fill="#1C68A9" d="M124.273,206.588l2.251-1.029l3.668,8.012l1.156-10.221l2.396-1.096l5.509,12.033l-2.25,1.03l-3.596-7.856
	l-1.221,10.061l-2.403,1.101L124.273,206.588z"/>
<path fill="#1C68A9" d="M135.964,201.057l2.098-1.31l4.669,7.471l-0.169-10.284l2.233-1.395l7.013,11.224l-2.098,1.311l-4.578-7.327
	l0.087,10.133l-2.242,1.401L135.964,201.057z"/>
</svg>
