<?xml version="1.0" encoding="utf-8"?>
<!-- Generator: Adobe Illustrator 14.0.0, SVG Export Plug-In . SVG Version: 6.00 Build 43363)  -->
<!DOCTYPE svg PUBLIC "-//W3C//DTD SVG 1.1//EN" "http://www.w3.org/Graphics/SVG/1.1/DTD/svg11.dtd">
<svg version="1.1" id="Layer_1" xmlns="http://www.w3.org/2000/svg" xmlns:xlink="http://www.w3.org/1999/xlink" x="0px" y="0px"
	 width="66px" height="46px" viewBox="0 0 66 46" enable-background="new 0 0 66 46" xml:space="preserve">
<g>
	<rect x="12.354" y="0.349" fill="#D62D3D" width="8.583" height="21.153"/>
	<g>
		<g opacity="0.45">
			<g>
				<rect x="12.355" y="2.947" fill="none" width="8.583" height="1.394"/>
				<rect x="12.355" y="2.949" fill="#FFFFFF" width="8.582" height="1.389"/>
			</g>
		</g>
	</g>
	<rect x="22.734" y="6.421" fill="#50C06D" width="8.582" height="15.604"/>
	<g>
		<g opacity="0.45">
			<g>
				<rect x="22.734" y="8.239" fill="none" width="8.584" height="1.394"/>
				<rect x="22.735" y="8.242" fill="#FFFFFF" width="8.582" height="1.386"/>
			</g>
		</g>
	</g>
	<rect x="10.182" y="19.252" fill="#EC8138" width="23.321" height="7.974"/>
	<path fill="#502E6E" d="M8.533,26.092c0,0-0.522,7.37,1.991,12.051c2.512,4.683,7.02,6.678,7.02,6.678l37.016,0.014
		c0,0,4.248-2.165,7.024-7.539c2.774-5.375,2.777-11.184,2.777-11.184S8.446,26.179,8.533,26.092"/>
	<rect x="6.193" y="22.982" fill="#6A4786" width="59.555" height="3.814"/>
	<path fill="#FFFFFF" d="M18.241,31.472c0-1.581-1.278-2.862-2.859-2.862c-1.58-0.001-2.861,1.279-2.861,2.858
		c-0.001,1.581,1.279,2.861,2.859,2.861C16.958,34.33,18.239,33.052,18.241,31.472"/>
	<path fill="#FFFFFF" d="M28.535,31.475c0.001-1.579-1.279-2.86-2.859-2.862c-1.58,0-2.862,1.28-2.859,2.859
		c-0.002,1.582,1.276,2.862,2.858,2.863C27.253,34.336,28.534,33.056,28.535,31.475"/>
	<path fill="#FFFFFF" d="M38.829,31.479c0.002-1.579-1.278-2.862-2.857-2.862c-1.582,0-2.863,1.28-2.863,2.859
		c0,1.583,1.28,2.861,2.861,2.862C37.548,34.339,38.829,33.06,38.829,31.479"/>
	<path fill="#FFFFFF" d="M49.124,31.483c0.002-1.581-1.28-2.862-2.858-2.862c-1.583,0-2.862,1.28-2.862,2.861
		c-0.001,1.579,1.279,2.86,2.859,2.862C47.842,34.343,49.123,33.063,49.124,31.483"/>
	<path fill="#FFFFFF" d="M59.419,31.488c0-1.581-1.281-2.862-2.861-2.863c-1.581,0-2.861,1.28-2.861,2.86
		c-0.001,1.579,1.28,2.86,2.859,2.862C58.137,34.347,59.417,33.065,59.419,31.488"/>
	<path fill="#80A4C1" d="M6.579,40.656c0,0-1.908-2.386-2.167-4.595c-0.258-2.21,0.999-2.947,2.038-2.774
		c1.042,0.175,1.561,1.604,1.431,3.815c-0.132,2.21-0.739,3.38-0.739,3.38L6.579,40.656z"/>
	<path fill="#80A4C1" d="M6.992,40.847c0,0-0.902,2.918-2.583,4.374c-1.684,1.455-3,0.83-3.441-0.129
		c-0.439-0.96,0.452-2.191,2.354-3.327c1.902-1.132,3.21-1.288,3.21-1.288L6.992,40.847z"/>
	<path fill="#80A4C1" d="M7.188,40.667c0,0,3.032,0.362,4.767,1.757c1.736,1.393,1.357,2.8,0.493,3.405
		c-0.863,0.605-2.237-0.049-3.693-1.716c-1.458-1.669-1.848-2.929-1.848-2.929L7.188,40.667z"/>
	<polygon fill="#004982" points="10.609,37.364 7.143,39.92 7.575,40.699 11.13,38.013 	"/>
	<path fill="#004982" d="M7.879,40.7c-0.001,0.527-0.428,0.953-0.956,0.954c-0.525,0-0.953-0.427-0.951-0.955
		c0-0.526,0.426-0.953,0.952-0.953C7.452,39.745,7.879,40.174,7.879,40.7"/>
</g>
</svg>
