<?xml version="1.0" encoding="utf-8"?>
<!-- Generator: Adobe Illustrator 14.0.0, SVG Export Plug-In . SVG Version: 6.00 Build 43363)  -->
<!DOCTYPE svg PUBLIC "-//W3C//DTD SVG 1.1//EN" "http://www.w3.org/Graphics/SVG/1.1/DTD/svg11.dtd">
<svg version="1.1" id="Layer_1" xmlns="http://www.w3.org/2000/svg" xmlns:xlink="http://www.w3.org/1999/xlink" x="0px" y="0px"
	 width="249px" height="13px" viewBox="0 0 249 13" enable-background="new 0 0 249 13" xml:space="preserve">
<g>
	<g>
		<g>
			<linearGradient id="SVGID_1_" gradientUnits="userSpaceOnUse" x1="5.4058" y1="12.0776" x2="5.4058" y2="1.5327">
				<stop  offset="0" style="stop-color:#330A5B"/>
				<stop  offset="1" style="stop-color:#6A4786"/>
			</linearGradient>
			<path fill="url(#SVGID_1_)" d="M2.306,9.54c0.607,0.319,1.581,0.638,2.567,0.638c1.064,0,1.626-0.439,1.626-1.109
				c0-0.638-0.486-1.002-1.717-1.428C3.081,7.033,1.957,6.09,1.957,4.602c0-1.748,1.474-3.07,3.875-3.07
				c1.17,0,2.006,0.228,2.614,0.517l-0.249,0.89C8.048,3.469,7.513,3.726,7.007,3.51c0,0-0.219-0.093-1.207-0.093
				c-1.002,0-1.489,0.471-1.489,0.987c0,0.654,0.562,0.942,1.899,1.444c1.808,0.668,2.644,1.61,2.644,3.054
				c0,1.717-1.307,3.176-4.118,3.176c-1.17,0-1.964-0.293-1.964-0.293c-0.516-0.19-0.83-0.782-0.698-1.316L2.306,9.54z"/>
		</g>
		<g>
			<linearGradient id="SVGID_2_" gradientUnits="userSpaceOnUse" x1="14.4238" y1="11.9253" x2="14.4238" y2="1.6851">
				<stop  offset="0" style="stop-color:#330A5B"/>
				<stop  offset="1" style="stop-color:#6A4786"/>
			</linearGradient>
			<path fill="url(#SVGID_2_)" d="M10.434,2.685c0-0.55,0.45-1,1-1h0.293c0.55,0,1,0.45,1,1v2.527c0,0.55,0.007,1,0.016,1
				c0.008,0,0.227-0.342,0.486-0.759c0,0,0,0,0.243-0.365l1.748-2.576c0.309-0.455,1.012-0.828,1.562-0.828h0.856
				c0.55,0,0.724,0.355,0.386,0.79l-2.161,2.781C15.526,5.689,15.483,6.43,15.768,6.9l2.521,4.169
				c0.285,0.471,0.067,0.855-0.482,0.855h-0.689c-0.55,0-1.223-0.391-1.496-0.868L14.09,8.372c-0.272-0.478-0.69-0.626-0.929-0.329
				c-0.239,0.297-0.434,0.989-0.434,1.539v1.344c0,0.55-0.45,1-1,1h-0.293c-0.55,0-1-0.45-1-1V2.685z"/>
		</g>
		<g>
			<linearGradient id="SVGID_3_" gradientUnits="userSpaceOnUse" x1="22.9673" y1="11.9253" x2="22.9673" y2="1.6851">
				<stop  offset="0" style="stop-color:#330A5B"/>
				<stop  offset="1" style="stop-color:#6A4786"/>
			</linearGradient>
			<path fill="url(#SVGID_3_)" d="M19.777,2.685c0-0.55,0.45-1,1-1h0.31c0.55,0,1,0.45,1,1V8.98c0,0.55,0.45,1,1,1h2.072
				c0.55,0,1,0.438,1,0.973s-0.45,0.973-1,0.973h-4.381c-0.55,0-1-0.45-1-1V2.685z"/>
		</g>
		<g>
			<linearGradient id="SVGID_4_" gradientUnits="userSpaceOnUse" x1="30.7983" y1="11.9253" x2="30.7983" y2="1.6851">
				<stop  offset="0" style="stop-color:#330A5B"/>
				<stop  offset="1" style="stop-color:#6A4786"/>
			</linearGradient>
			<path fill="url(#SVGID_4_)" d="M33.617,6.653c0,0.519-0.45,0.942-1,0.942h-1.768c-0.55,0-1,0.45-1,1v0.431c0,0.55,0.45,1,1,1
				h2.208c0.55,0,1,0.428,1,0.95c0,0.521-0.45,0.949-1,0.949H28.54c-0.55,0-1-0.45-1-1V2.685c0-0.55,0.45-1,1-1h4.306
				c0.55,0,1,0.427,1,0.95s-0.45,0.95-1,0.95h-1.996c-0.55,0-1,0.45-1,1V4.71c0,0.55,0.45,1,1,1h1.768
				C33.167,5.71,33.617,6.134,33.617,6.653z"/>
		</g>
		<g>
			<linearGradient id="SVGID_5_" gradientUnits="userSpaceOnUse" x1="39.314" y1="11.9253" x2="39.314" y2="1.6084">
				<stop  offset="0" style="stop-color:#330A5B"/>
				<stop  offset="1" style="stop-color:#6A4786"/>
			</linearGradient>
			<path fill="url(#SVGID_5_)" d="M35.637,1.821c0.714-0.121,1.717-0.213,3.13-0.213c1.428,0,2.446,0.274,3.129,0.821
				c0.669,0.517,1.094,1.367,1.094,2.371c0,1.002-0.319,1.869-0.942,2.431c-0.79,0.729-1.96,1.078-3.328,1.078
				c-0.303,0-0.577-0.015-0.79-0.06v2.677c0,0.55-0.45,1-1,1h-0.294c-0.55,0-1-0.45-1-1V1.821z M37.931,6.47
				c0.197,0.046,0.425,0.061,0.775,0.061c1.23,0,1.99-0.623,1.99-1.656c0-0.942-0.654-1.504-1.823-1.504c-0.456,0-0.456,0-0.456,0
				c-0.268,0.042-0.487,0.526-0.487,1.076V6.47z"/>
		</g>
		<g>
			<linearGradient id="SVGID_6_" gradientUnits="userSpaceOnUse" x1="48.7026" y1="11.9253" x2="48.7026" y2="1.6851">
				<stop  offset="0" style="stop-color:#330A5B"/>
				<stop  offset="1" style="stop-color:#6A4786"/>
			</linearGradient>
			<path fill="url(#SVGID_6_)" d="M48.857,1.685c0.55,0,1,0.45,1,1v8.241c0,0.55-0.45,1-1,1h-0.309c-0.55,0-1-0.45-1-1V2.685
				c0-0.55,0.45-1,1-1H48.857z"/>
		</g>
		<g>
			<linearGradient id="SVGID_7_" gradientUnits="userSpaceOnUse" x1="56.1011" y1="11.9253" x2="56.1011" y2="1.6851">
				<stop  offset="0" style="stop-color:#330A5B"/>
				<stop  offset="1" style="stop-color:#6A4786"/>
			</linearGradient>
			<path fill="url(#SVGID_7_)" d="M52.862,11.925c-0.55,0-1-0.45-1-1V2.685c0-0.55,0.45-1,1-1h0.705c0.55,0,1.222,0.392,1.493,0.87
				L56.2,4.567c0.271,0.479,0.697,1.271,0.947,1.761c0,0,0.746,1.464,1.217,2.618l0,0c0.017,0,0-0.449-0.036-0.998
				c0,0-0.116-1.737-0.116-3.287V2.685c0-0.55,0.45-1,1-1h0.127c0.55,0,1,0.45,1,1v8.241c0,0.55-0.45,1-1,1h-0.431
				c-0.55,0-1.218-0.394-1.484-0.875l-1.219-2.201c-0.267-0.481-0.697-1.271-0.956-1.757c0,0-0.82-1.534-1.306-2.734l0,0
				c-0.033,0-0.043,0.45-0.023,1c0,0,0.068,1.812,0.068,3.482v2.085c0,0.55-0.45,1-1,1H52.862z"/>
		</g>
		<g>
			<linearGradient id="SVGID_8_" gradientUnits="userSpaceOnUse" x1="65.5044" y1="11.9253" x2="65.5044" y2="1.6851">
				<stop  offset="0" style="stop-color:#330A5B"/>
				<stop  offset="1" style="stop-color:#6A4786"/>
			</linearGradient>
			<path fill="url(#SVGID_8_)" d="M64.335,4.629c0-0.55-0.45-1-1-1h-0.766c-0.55,0-1-0.438-1-0.973c0-0.535,0.45-0.972,1-0.972h5.87
				c0.55,0,1,0.438,1,0.972c0,0.535-0.45,0.973-1,0.973h-0.795c-0.55,0-1,0.45-1,1v6.296c0,0.55-0.45,1-1,1h-0.31
				c-0.55,0-1-0.45-1-1V4.629z"/>
		</g>
		<g>
			<linearGradient id="SVGID_9_" gradientUnits="userSpaceOnUse" x1="73.9438" y1="11.9253" x2="73.9438" y2="1.6851">
				<stop  offset="0" style="stop-color:#330A5B"/>
				<stop  offset="1" style="stop-color:#6A4786"/>
			</linearGradient>
			<path fill="url(#SVGID_9_)" d="M76.762,6.653c0,0.519-0.45,0.942-1,0.942h-1.768c-0.55,0-1,0.45-1,1v0.431c0,0.55,0.45,1,1,1
				h2.209c0.55,0,1,0.428,1,0.95c0,0.521-0.45,0.949-1,0.949h-4.518c-0.55,0-1-0.45-1-1V2.685c0-0.55,0.45-1,1-1h4.305
				c0.55,0,1,0.427,1,0.95s-0.45,0.95-1,0.95h-1.996c-0.55,0-1,0.45-1,1V4.71c0,0.55,0.45,1,1,1h1.768
				C76.312,5.71,76.762,6.134,76.762,6.653z"/>
		</g>
		<g>
			<linearGradient id="SVGID_10_" gradientUnits="userSpaceOnUse" x1="82.6489" y1="11.9253" x2="82.6489" y2="1.6084">
				<stop  offset="0" style="stop-color:#330A5B"/>
				<stop  offset="1" style="stop-color:#6A4786"/>
			</linearGradient>
			<path fill="url(#SVGID_10_)" d="M78.782,1.821c0.744-0.121,1.838-0.213,3.084-0.213c1.52,0,2.583,0.229,3.313,0.806
				c0.623,0.486,0.957,1.215,0.957,2.157c0,1.291-0.927,2.188-1.808,2.507l0,0c0,0.025,0.34,0.339,0.757,0.699
				c0,0,0.352,0.305,0.61,1.246c0.319,1.17,0.623,2.508,0.821,2.902h-1.371c-0.55,0-1.154-0.423-1.343-0.939
				c0,0-0.067-0.186-0.356-1.446c-0.288-1.291-0.729-1.626-1.687-1.642l0,0c-0.376,0-0.684,0.45-0.684,1v2.027c0,0.55-0.45,1-1,1
				h-0.294c-0.55,0-1-0.45-1-1V1.821z M81.076,5.228c0,0.55,0.205,1,0.456,1c0.25,0,0.885-0.135,1.41-0.3
				c0,0,0.884-0.278,0.884-1.174c0-0.927-0.638-1.413-1.702-1.413c-0.562,0-0.562,0-0.562,0c-0.267,0.042-0.486,0.526-0.486,1.076
				V5.228z"/>
		</g>
		<g>
			<linearGradient id="SVGID_11_" gradientUnits="userSpaceOnUse" x1="92.0293" y1="11.9253" x2="92.0293" y2="1.6851">
				<stop  offset="0" style="stop-color:#330A5B"/>
				<stop  offset="1" style="stop-color:#6A4786"/>
			</linearGradient>
			<path fill="url(#SVGID_11_)" d="M88.79,11.925c-0.55,0-1-0.45-1-1V2.685c0-0.55,0.45-1,1-1h0.705c0.55,0,1.222,0.392,1.493,0.87
				l1.141,2.013c0.271,0.479,0.697,1.271,0.947,1.761c0,0,0.746,1.464,1.218,2.618l0,0c0.017,0,0-0.449-0.037-0.998
				c0,0-0.116-1.737-0.116-3.287V2.685c0-0.55,0.45-1,1-1h0.127c0.55,0,1,0.45,1,1v8.241c0,0.55-0.45,1-1,1h-0.431
				c-0.55,0-1.218-0.394-1.484-0.875l-1.219-2.201c-0.267-0.481-0.696-1.271-0.956-1.757c0,0-0.82-1.534-1.306-2.734l0,0
				c-0.033,0-0.043,0.45-0.022,1c0,0,0.068,1.812,0.068,3.482v2.085c0,0.55-0.45,1-1,1H88.79z"/>
		</g>
		<g>
			<linearGradient id="SVGID_12_" gradientUnits="userSpaceOnUse" x1="101.5474" y1="11.9253" x2="101.5474" y2="1.6851">
				<stop  offset="0" style="stop-color:#330A5B"/>
				<stop  offset="1" style="stop-color:#6A4786"/>
			</linearGradient>
			<path fill="url(#SVGID_12_)" d="M104.366,6.653c0,0.519-0.45,0.942-1,0.942h-1.768c-0.55,0-1,0.45-1,1v0.431c0,0.55,0.45,1,1,1
				h2.208c0.55,0,1,0.428,1,0.95c0,0.521-0.45,0.949-1,0.949h-4.518c-0.55,0-1-0.45-1-1V2.685c0-0.55,0.45-1,1-1h4.305
				c0.55,0,1,0.427,1,0.95s-0.45,0.95-1,0.95h-1.996c-0.55,0-1,0.45-1,1V4.71c0,0.55,0.45,1,1,1h1.768
				C103.916,5.71,104.366,6.134,104.366,6.653z"/>
		</g>
		<g>
			<linearGradient id="SVGID_13_" gradientUnits="userSpaceOnUse" x1="109.6216" y1="11.9253" x2="109.6216" y2="1.6851">
				<stop  offset="0" style="stop-color:#330A5B"/>
				<stop  offset="1" style="stop-color:#6A4786"/>
			</linearGradient>
			<path fill="url(#SVGID_13_)" d="M108.452,4.629c0-0.55-0.45-1-1-1h-0.765c-0.55,0-1-0.438-1-0.973c0-0.535,0.45-0.972,1-0.972
				h5.87c0.55,0,1,0.438,1,0.972c0,0.535-0.45,0.973-1,0.973h-0.795c-0.55,0-1,0.45-1,1v6.296c0,0.55-0.45,1-1,1h-0.31
				c-0.55,0-1-0.45-1-1V4.629z"/>
		</g>
		<g>
			<linearGradient id="SVGID_14_" gradientUnits="userSpaceOnUse" x1="118.7979" y1="12.0923" x2="118.7979" y2="1.5024">
				<stop  offset="0" style="stop-color:#330A5B"/>
				<stop  offset="1" style="stop-color:#6A4786"/>
			</linearGradient>
			<path fill="url(#SVGID_14_)" d="M123.721,6.698c0,3.374-2.021,5.394-5.029,5.394c-3.023,0-4.816-2.294-4.816-5.227
				c0-3.07,1.975-5.364,4.984-5.364C122.003,1.502,123.721,3.857,123.721,6.698z M116.321,6.82c0,2.021,0.942,3.434,2.492,3.434
				c1.565,0,2.461-1.488,2.461-3.479c0-1.854-0.866-3.434-2.461-3.434C117.233,3.34,116.321,4.83,116.321,6.82z"/>
		</g>
		<g>
			<linearGradient id="SVGID_15_" gradientUnits="userSpaceOnUse" x1="130.8828" y1="11.9253" x2="130.8828" y2="1.6851">
				<stop  offset="0" style="stop-color:#330A5B"/>
				<stop  offset="1" style="stop-color:#6A4786"/>
			</linearGradient>
			<path fill="url(#SVGID_15_)" d="M127.789,11.925c-0.55,0-1.104-0.438-1.231-0.973l-1.969-8.295
				c-0.127-0.535,0.219-0.973,0.769-0.973h0.477c0.55,0,1.082,0.442,1.182,0.983l0.412,2.242c0.1,0.541,0.258,1.427,0.352,1.969
				c0,0,0.271,1.567,0.438,2.6l0,0c0.017,0,0.108-0.443,0.203-0.985c0,0,0.238-1.354,0.496-2.63l0.662-3.199
				c0.112-0.539,0.653-0.979,1.203-0.979h0.461c0.55,0,1.084,0.442,1.187,0.982l0.448,2.35c0.103,0.541,0.263,1.426,0.356,1.968
				c0,0,0.226,1.309,0.378,2.449l0,0c0.016,0,0.102-0.444,0.19-0.987c0,0,0.22-1.353,0.432-2.583l0.64-3.197
				c0.108-0.539,0.646-0.98,1.196-0.98h0.354c0.55,0,0.888,0.436,0.75,0.968l-2.144,8.305c-0.138,0.532-0.7,0.968-1.25,0.968h-0.507
				c-0.55,0-1.087-0.441-1.193-0.981L131.601,8.5c-0.106-0.54-0.274-1.424-0.373-1.965c0,0-0.185-1.007-0.306-2.177l0,0
				c-0.018,0-0.104,0.444-0.193,0.987c0,0-0.188,1.14-0.43,2.174l-0.757,3.43c-0.119,0.537-0.666,0.977-1.216,0.977H127.789z"/>
		</g>
		<g>
			<linearGradient id="SVGID_16_" gradientUnits="userSpaceOnUse" x1="142.21" y1="11.9253" x2="142.21" y2="1.6851">
				<stop  offset="0" style="stop-color:#330A5B"/>
				<stop  offset="1" style="stop-color:#6A4786"/>
			</linearGradient>
			<path fill="url(#SVGID_16_)" d="M141.992,11.925c-0.55,0-1-0.45-1-1V8.732c0-0.55-0.212-1.396-0.472-1.882l-2.293-4.284
				c-0.26-0.485-0.021-0.882,0.528-0.882h0.66c0.55,0,1.174,0.415,1.387,0.922l0.26,0.618c0.213,0.507,0.563,1.336,0.776,1.843
				c0,0,0.157,0.371,0.399,1.039l0,0c0.018,0,0.192-0.42,0.389-0.934c0,0,0.113-0.296,0.417-1.025l0.646-1.54
				c0.213-0.507,0.837-0.922,1.387-0.922h0.599c0.55,0,0.778,0.392,0.508,0.871l-2.39,4.23c-0.271,0.479-0.492,1.321-0.492,1.871
				v2.27c0,0.55-0.45,1-1,1H141.992z"/>
		</g>
		<g>
			<linearGradient id="SVGID_17_" gradientUnits="userSpaceOnUse" x1="154.1875" y1="11.9253" x2="154.1875" y2="1.6851">
				<stop  offset="0" style="stop-color:#330A5B"/>
				<stop  offset="1" style="stop-color:#6A4786"/>
			</linearGradient>
			<path fill="url(#SVGID_17_)" d="M150.214,11.302c0-0.343,0.257-0.992,0.57-1.444l3.737-5.377c0.313-0.452,0.57-0.835,0.57-0.852
				c0-0.017-0.45-0.031-1-0.031h-2.438c-0.55,0-1-0.431-1-0.957s0.45-0.957,1-0.957h5.43c0.55,0,1,0.301,1,0.668
				c0,0.368-0.255,1.04-0.567,1.493l-3.636,5.282c-0.313,0.452-0.567,0.837-0.567,0.853c0,0.017,0.45,0.03,1,0.03h2.847
				c0.55,0,1,0.431,1,0.958c0,0.526-0.45,0.957-1,0.957h-5.946C150.664,11.925,150.214,11.645,150.214,11.302z"/>
		</g>
		<g>
			<linearGradient id="SVGID_18_" gradientUnits="userSpaceOnUse" x1="166.0215" y1="11.9253" x2="166.0215" y2="1.6851">
				<stop  offset="0" style="stop-color:#330A5B"/>
				<stop  offset="1" style="stop-color:#6A4786"/>
			</linearGradient>
			<path fill="url(#SVGID_18_)" d="M162.049,11.302c0-0.343,0.257-0.992,0.57-1.444l3.737-5.377c0.313-0.452,0.57-0.835,0.57-0.852
				c0-0.017-0.45-0.031-1-0.031h-2.438c-0.55,0-1-0.431-1-0.957s0.45-0.957,1-0.957h5.431c0.55,0,1,0.301,1,0.668
				c0,0.368-0.255,1.04-0.567,1.493l-3.636,5.282c-0.313,0.452-0.567,0.837-0.567,0.853c0,0.017,0.45,0.03,1,0.03h2.847
				c0.55,0,1,0.431,1,0.958c0,0.526-0.45,0.957-1,0.957h-5.946C162.499,11.925,162.049,11.645,162.049,11.302z"/>
		</g>
		<g>
			<linearGradient id="SVGID_19_" gradientUnits="userSpaceOnUse" x1="175.5137" y1="11.9253" x2="175.5137" y2="1.6851">
				<stop  offset="0" style="stop-color:#330A5B"/>
				<stop  offset="1" style="stop-color:#6A4786"/>
			</linearGradient>
			<path fill="url(#SVGID_19_)" d="M174.959,9.296c-0.55,0-1.12,0.434-1.268,0.964l-0.194,0.701
				c-0.147,0.53-0.718,0.964-1.268,0.964h-0.386c-0.55,0-0.869-0.431-0.709-0.957l2.533-8.327c0.16-0.526,0.741-0.957,1.291-0.957
				h1.039c0.55,0,1.134,0.43,1.298,0.955l2.595,8.331c0.164,0.525-0.152,0.955-0.702,0.955h-0.507c-0.55,0-1.13-0.431-1.288-0.958
				l-0.214-0.713c-0.158-0.527-0.738-0.958-1.288-0.958H174.959z M175.557,7.564c0.55,0,0.873-0.432,0.719-0.959L176.2,6.351
				c-0.154-0.528-0.397-1.395-0.539-1.926c0,0-0.106-0.401-0.259-1.009l0,0c-0.017,0-0.127,0.439-0.245,0.977
				c0,0-0.089,0.406-0.256,0.999l-0.338,1.209c-0.148,0.529,0.181,0.963,0.73,0.963H175.557z"/>
		</g>
		<g>
			<linearGradient id="SVGID_20_" gradientUnits="userSpaceOnUse" x1="185.3379" y1="12.0317" x2="185.3379" y2="1.6084">
				<stop  offset="0" style="stop-color:#330A5B"/>
				<stop  offset="1" style="stop-color:#6A4786"/>
			</linearGradient>
			<path fill="url(#SVGID_20_)" d="M181.54,1.821c0.607-0.106,1.823-0.213,2.993-0.213c1.413,0,2.279,0.137,3.039,0.578
				c0.715,0.379,1.216,1.079,1.216,2.021c0,0.896-0.532,1.732-1.688,2.173l0,0c0,0.017,0.388,0.259,0.861,0.538
				c0,0,1.175,0.692,1.175,1.998c0,0.943-0.426,1.672-1.063,2.188c-0.744,0.593-1.989,0.928-4.026,0.928
				c-1.139,0-1.513-0.042-1.513-0.042c-0.547-0.061-0.994-0.561-0.994-1.11V1.821z M183.834,4.741c0,0.55,0.171,1,0.38,1
				s0.814-0.117,1.346-0.259c0,0,0.903-0.242,0.903-1.001c0-0.775-0.592-1.186-1.642-1.186c-0.517,0-0.517,0-0.517,0
				c-0.259,0.034-0.471,0.512-0.471,1.062V4.741z M183.834,10.285c0.229,0.029,0.501,0.029,0.896,0.029
				c1.049,0,1.976-0.41,1.976-1.488c0-1.018-0.927-1.428-2.081-1.428l0,0c-0.436,0-0.791,0.45-0.791,1V10.285z"/>
		</g>
		<g>
			<linearGradient id="SVGID_21_" gradientUnits="userSpaceOnUse" x1="194.5957" y1="11.9253" x2="194.5957" y2="1.6851">
				<stop  offset="0" style="stop-color:#330A5B"/>
				<stop  offset="1" style="stop-color:#6A4786"/>
			</linearGradient>
			<path fill="url(#SVGID_21_)" d="M194.041,9.296c-0.55,0-1.12,0.434-1.268,0.964l-0.194,0.701
				c-0.147,0.53-0.718,0.964-1.268,0.964h-0.386c-0.55,0-0.869-0.431-0.709-0.957l2.533-8.327c0.16-0.526,0.741-0.957,1.291-0.957
				h1.038c0.55,0,1.134,0.43,1.298,0.955l2.596,8.331c0.164,0.525-0.152,0.955-0.702,0.955h-0.508c-0.55,0-1.129-0.431-1.287-0.958
				l-0.215-0.713c-0.158-0.527-0.737-0.958-1.287-0.958H194.041z M194.639,7.564c0.55,0,0.873-0.432,0.719-0.959l-0.075-0.253
				c-0.154-0.528-0.397-1.394-0.539-1.926c0,0-0.107-0.401-0.259-1.009l0,0c-0.017,0-0.127,0.439-0.245,0.977
				c0,0-0.089,0.406-0.256,0.999l-0.339,1.209c-0.148,0.53,0.181,0.963,0.73,0.963H194.639z"/>
		</g>
		<g>
			<linearGradient id="SVGID_22_" gradientUnits="userSpaceOnUse" x1="205.4746" y1="11.9253" x2="205.4746" y2="1.6851">
				<stop  offset="0" style="stop-color:#330A5B"/>
				<stop  offset="1" style="stop-color:#6A4786"/>
			</linearGradient>
			<path fill="url(#SVGID_22_)" d="M202.381,11.925c-0.55,0-1.104-0.438-1.231-0.973l-1.969-8.295
				c-0.128-0.535,0.219-0.973,0.769-0.973h0.477c0.55,0,1.082,0.442,1.182,0.983l0.412,2.242c0.1,0.541,0.258,1.427,0.352,1.969
				c0,0,0.27,1.567,0.438,2.6l0,0c0.018,0,0.108-0.443,0.203-0.985c0,0,0.237-1.354,0.496-2.63l0.662-3.199
				c0.112-0.539,0.653-0.979,1.203-0.979h0.463c0.55,0,1.084,0.442,1.187,0.982l0.447,2.35c0.103,0.541,0.263,1.426,0.356,1.968
				c0,0,0.226,1.309,0.377,2.449l0,0c0.016,0,0.102-0.444,0.189-0.987c0,0,0.22-1.353,0.433-2.583l0.64-3.197
				c0.108-0.539,0.646-0.98,1.196-0.98h0.354c0.55,0,0.888,0.436,0.75,0.968l-2.143,8.304c-0.138,0.533-0.7,0.969-1.25,0.969h-0.508
				c-0.55,0-1.087-0.441-1.192-0.981l-0.48-2.443c-0.105-0.54-0.273-1.424-0.372-1.965c0,0-0.185-1.007-0.308-2.177l0,0
				c-0.017,0-0.103,0.444-0.191,0.987c0,0-0.188,1.14-0.431,2.174l-0.757,3.43c-0.119,0.537-0.666,0.977-1.216,0.977H202.381z"/>
		</g>
		<g>
			<linearGradient id="SVGID_23_" gradientUnits="userSpaceOnUse" x1="217.2031" y1="11.9253" x2="217.2031" y2="1.6851">
				<stop  offset="0" style="stop-color:#330A5B"/>
				<stop  offset="1" style="stop-color:#6A4786"/>
			</linearGradient>
			<path fill="url(#SVGID_23_)" d="M213.214,2.685c0-0.55,0.45-1,1-1h0.295c0.55,0,1,0.45,1,1v2.527c0,0.55,0.007,1,0.015,1
				c0.009,0,0.228-0.342,0.486-0.759c0,0,0,0,0.243-0.365l1.748-2.576c0.309-0.455,1.012-0.828,1.562-0.828h0.857
				c0.55,0,0.724,0.355,0.387,0.79l-2.162,2.781c-0.337,0.434-0.381,1.175-0.096,1.646l2.52,4.169
				c0.285,0.471,0.067,0.855-0.482,0.855h-0.688c-0.55,0-1.223-0.391-1.496-0.868l-1.531-2.686c-0.273-0.478-0.69-0.626-0.929-0.329
				s-0.433,0.989-0.433,1.539v1.344c0,0.55-0.45,1-1,1h-0.295c-0.55,0-1-0.45-1-1V2.685z"/>
		</g>
		<g>
			<linearGradient id="SVGID_24_" gradientUnits="userSpaceOnUse" x1="226.6797" y1="11.9253" x2="226.6797" y2="1.6851">
				<stop  offset="0" style="stop-color:#330A5B"/>
				<stop  offset="1" style="stop-color:#6A4786"/>
			</linearGradient>
			<path fill="url(#SVGID_24_)" d="M226.125,9.296c-0.55,0-1.12,0.434-1.267,0.964l-0.195,0.701
				c-0.146,0.53-0.717,0.964-1.267,0.964h-0.386c-0.55,0-0.869-0.431-0.709-0.957l2.532-8.327c0.16-0.526,0.741-0.957,1.291-0.957
				h1.039c0.55,0,1.134,0.43,1.298,0.955l2.595,8.331c0.164,0.525-0.152,0.955-0.702,0.955h-0.506c-0.55,0-1.13-0.431-1.288-0.958
				l-0.214-0.713c-0.158-0.527-0.738-0.958-1.288-0.958H226.125z M226.724,7.564c0.55,0,0.873-0.432,0.719-0.959l-0.075-0.253
				c-0.154-0.528-0.397-1.394-0.539-1.926c0,0-0.107-0.401-0.26-1.009l0,0c-0.017,0-0.127,0.439-0.245,0.977
				c0,0-0.089,0.406-0.256,0.999l-0.338,1.209c-0.148,0.529,0.181,0.963,0.73,0.963H226.724z"/>
		</g>
		<g>
			<linearGradient id="SVGID_25_" gradientUnits="userSpaceOnUse" x1="238.1348" y1="11.9253" x2="238.1348" y2="1.6851">
				<stop  offset="0" style="stop-color:#330A5B"/>
				<stop  offset="1" style="stop-color:#6A4786"/>
			</linearGradient>
			<path fill="url(#SVGID_25_)" d="M241.367,8.005c-0.046-1.231-0.092-2.72-0.092-4.209l0,0c-0.017,0-0.149,0.434-0.295,0.964
				c0,0-0.495,1.802-0.891,3.002l-0.947,3.04c-0.164,0.525-0.704,0.955-1.201,0.955c-0.498,0-1.024-0.434-1.172-0.964l-0.56-2.021
				c-0.147-0.53-0.377-1.4-0.51-1.934c0,0-0.427-1.705-0.685-3.042l0,0c-0.017,0-0.047,0.45-0.066,1c0,0-0.07,1.964-0.131,3.24
				l-0.146,2.891c-0.028,0.55-0.501,0.999-1.051,0.999h-0.144c-0.55,0-0.972-0.449-0.937-0.998l0.527-8.245
				c0.035-0.549,0.514-0.998,1.063-0.998h1.084c0.55,0,1.127,0.432,1.281,0.959l0.439,1.5c0.154,0.528,0.395,1.395,0.533,1.927
				c0,0,0.388,1.493,0.615,2.694l0,0c0.033,0,0.168-0.438,0.299-0.971c0,0,0.385-1.567,0.734-2.707l0.776-2.45
				c0.167-0.524,0.753-0.953,1.303-0.953h1.038c0.55,0,1.024,0.449,1.054,0.999l0.439,8.243c0.029,0.55-0.396,0.999-0.946,0.999
				h-0.248c-0.55,0-1.02-0.449-1.043-0.999L241.367,8.005z"/>
		</g>
		<g>
			<linearGradient id="SVGID_26_" gradientUnits="userSpaceOnUse" x1="246.7285" y1="11.9253" x2="246.7285" y2="1.6851">
				<stop  offset="0" style="stop-color:#330A5B"/>
				<stop  offset="1" style="stop-color:#6A4786"/>
			</linearGradient>
			<path fill="url(#SVGID_26_)" d="M246.883,1.685c0.55,0,1,0.45,1,1v8.241c0,0.55-0.45,1-1,1h-0.31c-0.55,0-1-0.45-1-1V2.685
				c0-0.55,0.45-1,1-1H246.883z"/>
		</g>
	</g>
</g>
</svg>
