<?xml version="1.0" encoding="utf-8"?>
<!-- Generator: Adobe Illustrator 14.0.0, SVG Export Plug-In . SVG Version: 6.00 Build 43363)  -->
<!DOCTYPE svg PUBLIC "-//W3C//DTD SVG 1.1//EN" "http://www.w3.org/Graphics/SVG/1.1/DTD/svg11.dtd">
<svg version="1.1" id="Layer_1" xmlns="http://www.w3.org/2000/svg" xmlns:xlink="http://www.w3.org/1999/xlink" x="0px" y="0px"
	 width="59px" height="62px" viewBox="0 0 59 62" enable-background="new 0 0 59 62" xml:space="preserve">
<g>
	
		<rect x="16.114" y="37.481" transform="matrix(0.7098 0.7044 -0.7044 0.7098 34.3875 -3.01)" fill="#004982" width="9.467" height="5.504"/>
	<path fill="#D62D3D" d="M19.375,35.064c0,0-5.845-2.564-10.763-1.237c-4.917,1.328-7.478,4.455-7.478,4.455
		S0.902,34.355,6.72,28.066c5.817-6.286,11.66-5.849,13.376-5.69c1.715,0.158,4.915,1.391,4.915,1.391L19.375,35.064z"/>
	<path fill="#D62D3D" d="M37.708,37.835l-10.593,2.832c0,0,2.641,6.77,1.353,11.645c-1.288,4.875-4.465,8.241-4.465,8.241l0.2,0.512
		c0,0,6.445-0.742,12.314-8.112C42.384,45.582,37.708,37.835,37.708,37.835"/>
	<path fill="#F6ECAF" d="M57.071,3.576c0,0-20.024,4.064-26.89,10.729c-9.77,9.484-10.806,20.76-10.806,20.76l6.607,6.638
		c0,0,11.125-0.559,21.283-9.959C57.422,22.345,57.071,3.576,57.071,3.576"/>
	<g>
		<path fill="none" d="M30.181,14.304c-9.771,9.483-10.806,20.76-10.806,20.76l6.607,6.638c0,0,11.126-0.559,21.283-9.958
			c10.157-9.398,9.807-28.169,9.807-28.169S37.046,7.64,30.181,14.304"/>
		<path fill="#D62D3D" d="M35.812,8.444c0,0-1.037,6.431,5.291,12.352c6.328,5.92,12.055,5.458,12.055,5.458
			s4.854-17.846,5.227-20.827c0.373-2.98-0.518-4.051-0.518-4.051L35.812,8.444z"/>
	</g>
	<path fill="#004982" d="M37.06,34.662c-3.625,1.414-7.709-0.378-9.124-4.002c-1.415-3.626,0.377-7.71,4.002-9.124
		c3.625-1.415,7.709,0.377,9.124,4.002C42.477,29.163,40.685,33.247,37.06,34.662"/>
	<path fill="#FFFFFF" d="M36.22,32.508c-2.436,0.95-5.18-0.254-6.13-2.689c-0.951-2.436,0.254-5.18,2.689-6.13
		c2.435-0.95,5.179,0.254,6.13,2.689C39.86,28.813,38.656,31.558,36.22,32.508"/>
</g>
</svg>
