<?xml version="1.0" encoding="utf-8"?>
<!-- Generator: Adobe Illustrator 14.0.0, SVG Export Plug-In . SVG Version: 6.00 Build 43363)  -->
<!DOCTYPE svg PUBLIC "-//W3C//DTD SVG 1.1//EN" "http://www.w3.org/Graphics/SVG/1.1/DTD/svg11.dtd">
<svg version="1.1" id="Layer_1" xmlns="http://www.w3.org/2000/svg" xmlns:xlink="http://www.w3.org/1999/xlink" x="0px" y="0px"
	 width="320px" height="100px" viewBox="0 0 320 100" enable-background="new 0 0 320 100" xml:space="preserve">
<g id="Layer_2">
	<g>
		<path fill="#EC8138" d="M326.661,71.682c-1.017,2.435-1.455,5.146-0.784,7.633c0.318,1.172,1.885,3.314,2.795,1.273
			c0.752-1.689-0.018-4.104-0.609-5.623C327.768,74.207,327.126,72.408,326.661,71.682"/>
		<path fill="#EC8138" d="M326.547,71.82c-2.111-0.014-4.045-0.316-5.758-1.545c-0.66-0.475-2.576-2-1.73-3.062
			c0.698-0.879,3.121,0.642,3.746,1.045C324.377,69.279,325.199,70.466,326.547,71.82"/>
		<path fill="#50C06D" d="M305.213,63.766c-2.143-0.474-5.074-0.375-7.146,0.436c-1.568,0.613-0.877,1.843,0.347,2.117
			c1.437,0.324,3.278-0.125,4.553-0.748C303.773,65.176,304.848,64.404,305.213,63.766"/>
		<path fill="#50C06D" d="M305.249,63.632c-0.056-2.56,0.413-5.45,1.573-7.739c0.516-1.016,2.082-2.787,2.494-0.69
			C309.854,57.939,306.553,62.581,305.249,63.632"/>
		<path fill="#D62D3D" d="M295.863,38.712c-2.831-0.008-7.205,2.074-8.416,3.683c-1.123,1.492-0.045,2.098,1.369,1.505
			c1.674-0.701,2.938-1.344,4.422-2.424C294.172,40.798,295.158,39.608,295.863,38.712"/>
		<path fill="#D62D3D" d="M295.688,38.962c-0.758-1.597-1.408-3.707-1.694-5.448c-0.155-0.956-0.452-3.864,0.526-4.248
			c1.877-0.737,2.373,2.448,2.293,3.935C296.729,34.731,296.354,37.829,295.688,38.962"/>
		
			<path fill="none" stroke="#004982" stroke-width="1.2769" stroke-linecap="round" stroke-linejoin="round" stroke-miterlimit="10" d="
			M270.686,40.248c2.064,1.431,4.914,0.975,7.192-0.082c2.276-1.059,4.304-2.648,6.677-3.469c6.529-2.254,13.994,2.312,16.731,8.653
			c3.138,7.265,1.493,16.349,6.222,22.692c3.633,4.875,10.582,6.737,16.378,4.905c5.798-1.831,10.267-6.967,11.917-12.818"/>
		<polygon fill="#FDB33A" points="231.154,26.458 238.789,7.003 239.801,6.604 206.95,19.568 208.359,19.012 		"/>
		<polygon fill="#50C06D" points="207.346,20.293 222.604,48.248 230.593,27.887 		"/>
		<polygon fill="#71D3C6" points="232.613,26.935 273.385,40.253 239.801,6.604 240.369,7.174 		"/>
		<polygon fill="#D62D3D" points="232.052,28.363 223.968,48.963 223.063,49.092 274.844,41.714 273.506,41.904 		"/>
		<path fill="#004982" d="M274.844,41.714l-1.459-1.461L274.844,41.714z"/>
		<path fill="#004982" d="M222.602,48.248l0.463,0.844L222.602,48.248z"/>
		<polygon fill="#004982" points="232.613,26.935 240.369,7.174 239.801,6.604 238.791,7.003 231.154,26.458 208.359,19.012 
			206.95,19.568 207.346,20.293 230.593,27.887 222.602,48.248 223.063,49.092 223.968,48.963 232.052,28.363 273.506,41.904 
			274.844,41.714 273.385,40.253 		"/>
	</g>
	<g>
		<path fill="#EC8138" d="M-32.882,81.712c-1.556-1.946-3.604-3.539-5.969-4.11c-1.116-0.269-3.602,0.06-2.323,1.738
			c1.059,1.389,3.408,1.846,4.937,2.043C-35.477,81.482-33.695,81.768-32.882,81.712"/>
		<path fill="#EC8138" d="M-32.947,81.555c0.97-1.744,2.097-3.209,3.892-4.072c0.692-0.332,2.825-1.229,3.321-0.047
			c0.412,0.979-1.946,2.297-2.564,2.631C-29.856,80.908-31.212,81.051-32.947,81.555"/>
		<path fill="#50C06D" d="M-16.599,67.527c1.364-1.561,2.612-4.034,2.881-6.118c0.203-1.579-1.129-1.562-1.912-0.675
			c-0.919,1.043-1.383,2.773-1.445,4.111C-17.115,65.695-16.961,66.936-16.599,67.527"/>
		<path fill="#50C06D" d="M-16.504,67.617c2.145,1.113,4.329,2.814,5.7,4.813c0.607,0.889,1.366,2.989-0.559,2.381
			C-13.875,74.016-16.225,69.175-16.504,67.617"/>
		<path fill="#D62D3D" d="M8.401,71.141c1.29-2.344,1.548-6.912,0.764-8.646c-0.728-1.606-1.718-0.987-1.868,0.452
			c-0.178,1.705-0.219,3.046,0.003,4.764C7.439,68.792,7.978,70.146,8.401,71.141"/>
		<path fill="#D62D3D" d="M8.273,70.88c1.667,0.097,3.711,0.515,5.284,1.065c0.862,0.306,3.406,1.379,3.281,2.361
			c-0.241,1.891-3.104,0.857-4.3,0.116C11.307,73.66,8.91,71.943,8.273,70.88"/>
		
			<path fill="none" stroke="#004982" stroke-width="1.2061" stroke-linecap="round" stroke-linejoin="round" stroke-miterlimit="10" d="
			M18.543,49.58c-2.121,1.063-3.036,3.629-3.193,5.997c-0.155,2.366,0.243,4.769-0.153,7.104c-1.093,6.432-8.26,10.549-14.756,9.94
			c-7.443-0.694-14.225-6.175-21.625-5.134c-5.687,0.801-10.381,5.715-11.491,11.348c-1.11,5.635,1.12,11.665,5.22,15.688"/>
		<polygon fill="#FDB43B" points="47.893,23.076 60.552,38.223 60.424,39.241 64.576,6.143 64.398,7.563 		"/>
		<polygon fill="#50C06D" points="63.796,6.143 33.714,6.109 46.963,21.963 		"/>
		<polygon fill="#71D3C6" points="46.836,24.068 17.315,51.814 60.424,39.241 59.695,39.453 		"/>
		<polygon fill="#D62D3D" points="45.907,22.956 32.502,6.917 32.806,6.109 15.443,52.361 15.892,51.166 		"/>
		<path fill="#004982" d="M15.443,52.361l1.872-0.547L15.443,52.361z"/>
		<path fill="#004982" d="M33.715,6.109h-0.909H33.715z"/>
		<polygon fill="#004982" points="46.836,24.068 59.695,39.453 60.424,39.241 60.552,38.224 47.893,23.076 64.398,7.563 
			64.576,6.143 63.796,6.143 46.963,21.963 33.715,6.109 32.806,6.109 32.502,6.917 45.907,22.956 15.892,51.166 15.443,52.361 
			17.315,51.814 		"/>
	</g>
	<g>
		<path fill="#EC8138" d="M183.167,101.248c-1.84,1.227-3.405,2.914-4.093,4.961c-0.323,0.967-0.225,3.189,1.357,2.188
			c1.309-0.828,1.894-2.871,2.186-4.207C182.766,103.523,183.152,101.973,183.167,101.248"/>
		<path fill="#EC8138" d="M183.021,101.293c-1.465-0.99-2.674-2.102-3.301-3.753c-0.24-0.638-0.869-2.593,0.215-2.94
			c0.896-0.289,1.881,1.897,2.127,2.471C182.688,98.512,182.71,99.721,183.021,101.293"/>
		<path fill="#D62D3D" d="M176.99,63.938c-1.973-1.319-5.991-1.897-7.583-1.338c-1.476,0.521-1.005,1.442,0.257,1.687
			c1.494,0.288,2.675,0.428,4.211,0.362C174.841,64.607,176.081,64.236,176.99,63.938"/>
		<path fill="#D62D3D" d="M176.75,64.031c0.213-1.467,0.738-3.241,1.348-4.59c0.336-0.738,1.48-2.905,2.34-2.719
			c1.653,0.356,0.521,2.811-0.227,3.811C179.441,61.563,177.741,63.55,176.75,64.031"/>
		
			<path opacity="0.38" fill="none" stroke="#004982" stroke-width="1.0703" stroke-linecap="round" stroke-linejoin="round" stroke-miterlimit="10" enable-background="new    " d="
			M158.708,53.316c0.776,1.955,2.976,2.961,5.056,3.283c2.082,0.317,4.234,0.149,6.271,0.68c5.604,1.461,8.692,8.113,7.655,13.81
			c-1.186,6.526-6.551,12.103-6.197,18.724c0.271,5.09,4.254,9.617,9.148,11.031c4.896,1.414,10.399-0.094,14.271-3.41"/>
		<polygon fill="#FDB43B" points="137.53,25.333 151.894,15.304 152.785,15.495 123.84,9.283 125.082,9.549 		"/>
		<polygon fill="#50C06D" points="123.781,9.972 121.441,36.564 136.474,26.068 		"/>
		<polygon fill="#71D3C6" points="138.327,26.343 160.589,54.572 152.785,15.495 152.915,16.156 		"/>
		<polygon fill="#D62D3D" points="137.271,27.079 122.063,37.698 121.372,37.367 160.93,56.271 159.907,55.781 		"/>
		<path fill="#004982" d="M160.93,56.271l-0.341-1.697L160.93,56.271z"/>
		<path fill="#004982" d="M121.441,36.564l-0.07,0.803L121.441,36.564z"/>
		<polygon fill="#004982" points="138.327,26.343 152.915,16.156 152.785,15.495 151.895,15.304 137.53,25.333 125.082,9.549 
			123.84,9.283 123.781,9.972 136.474,26.068 121.441,36.564 121.372,37.367 122.063,37.698 137.271,27.079 159.907,55.781 
			160.93,56.271 160.589,54.572 		"/>
	</g>
</g>
<g id="Layer_1_1_">
</g>
</svg>
