<?xml version="1.0" encoding="utf-8"?>
<!-- Generator: Adobe Illustrator 14.0.0, SVG Export Plug-In . SVG Version: 6.00 Build 43363)  -->
<!DOCTYPE svg PUBLIC "-//W3C//DTD SVG 1.1//EN" "http://www.w3.org/Graphics/SVG/1.1/DTD/svg11.dtd">
<svg version="1.1" id="Layer_1" xmlns="http://www.w3.org/2000/svg" xmlns:xlink="http://www.w3.org/1999/xlink" x="0px" y="0px"
	 width="89px" height="76px" viewBox="0 0 89 76" enable-background="new 0 0 89 76" xml:space="preserve">
<g opacity="0.2">
	<g>
		<g>
			<path fill="#FFFFFF" d="M50.54,74.706c1.063-0.604-0.386-0.994-3.222-0.865c0,0-6.763,0.309-12.257-1.451
				c-16.28-5.211-24.134-15.457-31-32.999C-8.894,6.288,18.306,0.897,18.306,0.897c2.784-0.552,6.481-0.331,8.215,0.492
				s0.941,2.203-1.762,3.069c0,0-21.488,6.879-11.49,32.425c5.942,15.183,12.288,23.185,25.792,27.507
				c11.098,3.555,19.464,3.775,30.713-1.629c8.038-3.861,9.484-11.318,9.283-16.895C78.524,31.098,66.973,15.013,57.391,11.03
				c-3.53-1.468-5.465-0.733-6.614-0.055c-4.445,2.627-6.924,5.634-7.579,9.192c-1.235,6.716-0.535,10.713-0.535,10.713
				c0.49,2.796,0.111,5.632-0.842,6.303s-3.284-0.508-5.18-2.621c0,0-4.888-5.448-3.016-15.622
				c1.059-5.756,4.946-10.654,11.554-14.56c4.775-2.823,10.646-3.03,16.531-0.584c13.802,5.736,26.432,25.28,27.028,41.825
				c0.397,10.999-4.621,19.571-14.131,24.14c-8.352,4.012-20.875,5.453-20.875,5.453C50.914,75.54,49.477,75.311,50.54,74.706z"/>
		</g>
	</g>
</g>
</svg>
