<?xml version="1.0" encoding="utf-8"?>
<!-- Generator: Adobe Illustrator 14.0.0, SVG Export Plug-In . SVG Version: 6.00 Build 43363)  -->
<!DOCTYPE svg PUBLIC "-//W3C//DTD SVG 1.1//EN" "http://www.w3.org/Graphics/SVG/1.1/DTD/svg11.dtd">
<svg version="1.1" id="Layer_1" xmlns="http://www.w3.org/2000/svg" xmlns:xlink="http://www.w3.org/1999/xlink" x="0px" y="0px"
	 width="141px" height="93px" viewBox="0 0 141 93" enable-background="new 0 0 141 93" xml:space="preserve">
<g opacity="0.2">
	<path fill="#FFFFFF" d="M102.657,91.76c-8.456,0-16.504-2.316-21.792-7.604c-11.145-11.144-9.157-21.54-7.235-31.595
		c1.273-6.664,2.59-13.556,1.166-22.393c-2.398-14.866-16.6-18.17-24.851-18.816C32.06,9.957,14.623,18.125,12.103,25.826
		c-1.949,5.955,3.905,19.204,8.688,22.165c16.069,9.947,28.104,2.263,31.918-1.007c2.193-1.882,2.708-5.047,1.343-8.26
		c-2.183-5.142-9.084-10.208-21.922-8.994c-2.776,0.257-3.226-0.75-3.458-1.68c-0.233-0.931,0.878-3.144,3.652-3.406
		c18.253-1.719,27.438,1.71,31.015,10.137c3.097,7.292,1.503,15.088-4.061,19.86c-4.171,3.577-18.483,17.6-43.799,1.929
		C-1.533,46.038,0.755,28.06,2.513,22.688C7.317,8.008,31.325-0.222,50.732,1.293c19.069,1.494,31.47,11.433,34.023,27.268
		c1.708,10.592,0.087,19.076-1.216,25.894c-1.874,9.801-2.906,15.201,4.459,22.566c7.311,7.31,28.215,5.547,37.912-3.199
		c5.167-4.66,5.294-9.638,0.396-15.665c-9.623-11.844-17.559-13.497-20.544-11.721c-2.565,1.528-3.775,6.921-0.372,15.147
		c1.066,2.575-0.157,5.525-2.732,6.591c-2.574,1.067-5.525-0.159-6.59-2.732c-5.036-12.171-3.258-23.033,4.53-27.673
		c7.211-4.298,19.812-2.87,33.539,14.026c8.278,10.188,7.728,21.225-1.47,29.52C125.489,87.79,113.724,91.76,102.657,91.76
		L102.657,91.76z"/>
</g>
</svg>
