<?xml version="1.0" encoding="utf-8"?>
<!-- Generator: Adobe Illustrator 14.0.0, SVG Export Plug-In . SVG Version: 6.00 Build 43363)  -->
<!DOCTYPE svg PUBLIC "-//W3C//DTD SVG 1.1//EN" "http://www.w3.org/Graphics/SVG/1.1/DTD/svg11.dtd">
<svg version="1.1" id="Layer_1" xmlns="http://www.w3.org/2000/svg" xmlns:xlink="http://www.w3.org/1999/xlink" x="0px" y="0px"
	 width="53px" height="53px" viewBox="0 0 53 53" enable-background="new 0 0 53 53" xml:space="preserve">
<g opacity="0.06">
	<g>
		<g>
			<path fill="#543172" d="M51.095,28.733c-0.225-0.736-0.662,0.1-0.973,1.855c0,0-0.741,4.189-2.576,7.317
				c-5.436,9.266-12.798,12.673-24.5,14.47C0.966,55.766,1.401,38.346,1.401,38.346c0.044-1.783,0.688-4.02,1.431-4.97
				c0.743-0.95,1.48-0.274,1.64,1.502c0,0,1.263,14.122,18.303,11.506c10.128-1.556,15.906-4.347,20.415-12.032
				c3.706-6.316,4.993-11.417,3.226-19.057c-1.262-5.46-5.635-7.374-9.082-8.017c-9.13-1.705-20.583,3.167-24.342,8.495
				c-1.385,1.963-1.201,3.25-0.943,4.048c1,3.087,2.502,5.021,4.595,5.912c3.948,1.681,6.496,1.801,6.496,1.801
				c1.782,0.084,3.469,0.706,3.749,1.384c0.281,0.678-0.763,1.943-2.319,2.815c0,0-4.014,2.247-9.994-0.3
				c-3.384-1.441-5.853-4.499-7.339-9.087C6.16,19.03,6.841,15.401,9.15,12.129c5.416-7.674,19.138-12.73,29.365-10.821
				c6.799,1.27,11.367,5.526,12.859,11.986c1.311,5.673,0.473,13.551,0.473,13.551C51.657,28.618,51.319,29.467,51.095,28.733z"/>
		</g>
	</g>
</g>
</svg>
