<?xml version="1.0" encoding="utf-8"?>
<!-- Generator: Adobe Illustrator 14.0.0, SVG Export Plug-In  -->
<!DOCTYPE svg PUBLIC "-//W3C//DTD SVG 1.1//EN" "http://www.w3.org/Graphics/SVG/1.1/DTD/svg11.dtd" [
	<!ENTITY ns_flows "http://ns.adobe.com/Flows/1.0/">
]>
<svg version="1.1"
	 xmlns="http://www.w3.org/2000/svg" xmlns:xlink="http://www.w3.org/1999/xlink" xmlns:a="http://ns.adobe.com/AdobeSVGViewerExtensions/3.0/"
	 x="0px" y="0px" width="159px" height="41px" viewBox="-3.324 -3.38 159 41" enable-background="new -3.324 -3.38 159 41"
	 xml:space="preserve">
<defs>
</defs>
<path fill="#1C68A9" d="M0.781,0.328h14.493v21.317h-4.685V4.326H5.466v17.319H0.781V0.328z"/>
<path fill="#1C68A9" d="M29.673,13.884l4.326,0.266c-0.156,2.311-0.89,4.193-2.202,5.646c-1.312,1.451-3.045,2.178-5.201,2.178
	c-2.624,0-4.623-0.973-5.997-2.92c-1.375-1.947-2.062-4.628-2.062-8.043c0-3.446,0.682-6.143,2.046-8.09
	C21.948,0.974,23.973,0,26.659,0c4.446,0,6.866,2.749,7.262,8.246l-4.279,0.312c-0.115-3.165-1.104-4.748-2.967-4.748
	c-0.979,0-1.757,0.51-2.334,1.531c-0.578,1.021-0.867,2.999-0.867,5.935c0,2.624,0.265,4.428,0.796,5.411
	c0.531,0.983,1.327,1.476,2.389,1.476C28.366,18.163,29.371,16.737,29.673,13.884z"/>
<path fill="#1C68A9" d="M36.748,0.328h4.685v8.894l5.179-8.894h4.738l-5.354,7.84l5.807,13.477h-4.847l-3.751-9.813l-1.772,2.567
	v7.246h-4.685V0.328z"/>
<path fill="#1C68A9" d="M52.802,11.838h6.356v3.452h-6.356V11.838z"/>
<path fill="#1C68A9" d="M59.252,0.328h13.29v3.998h-4.356v17.319H63.5V4.326h-4.248V0.328z"/>
<path fill="#1C68A9" d="M77.321,0.328h4.717l6.091,21.317h-4.792l-1.063-4.403h-6.005l-1.045,4.403h-4.306L77.321,0.328z
	 M81.392,13.587l-2.154-8.733l-2.066,8.733H81.392z"/>
<path fill="#1C68A9" d="M94.108,15.272L87.675,0.328h4.778l3.672,9.321l3.184-9.321h4.343l-5.7,16.023
	c-0.739,2.093-1.528,3.499-2.366,4.217s-2.001,1.077-3.49,1.077h-1.983v-3.967h1.983c0.313,0,0.627-0.1,0.945-0.303
	C93.357,17.174,93.713,16.473,94.108,15.272z"/>
<path fill="#1C68A9" d="M104.917,0.328h6.138c1.863,0,3.308,0.156,4.334,0.468c1.025,0.313,1.887,1.018,2.584,2.116
	c0.697,1.099,1.047,2.46,1.047,4.084c0,1.562-0.281,2.853-0.844,3.873c-0.563,1.021-1.341,1.757-2.335,2.21
	c-0.994,0.453-2.521,0.679-4.583,0.679h-1.655v7.886h-4.686V0.328z M109.603,3.779v6.325h1.452c1.28,0,2.105-0.297,2.476-0.893
	c0.369-0.595,0.554-1.367,0.554-2.317c0-0.804-0.143-1.453-0.43-1.949c-0.286-0.496-0.619-0.814-0.999-0.955
	c-0.38-0.141-0.914-0.211-1.601-0.211H109.603z"/>
<path fill="#1C68A9" d="M125.046,15.272l-6.434-14.944h4.778l3.672,9.321l3.184-9.321h4.343l-5.7,16.023
	c-0.739,2.093-1.528,3.499-2.366,4.217s-2.001,1.077-3.49,1.077h-1.983v-3.967h1.983c0.313,0,0.627-0.1,0.945-0.303
	C124.295,17.174,124.65,16.473,125.046,15.272z"/>
<path fill="#1C68A9" d="M146.1,13.884l4.325,0.266c-0.155,2.311-0.89,4.193-2.201,5.646c-1.313,1.451-3.046,2.178-5.201,2.178
	c-2.623,0-4.622-0.973-5.997-2.92c-1.374-1.947-2.062-4.628-2.062-8.043c0-3.446,0.683-6.143,2.046-8.09
	c1.364-1.947,3.39-2.92,6.075-2.92c4.445,0,6.866,2.749,7.262,8.246l-4.278,0.312c-0.115-3.165-1.104-4.748-2.968-4.748
	c-0.979,0-1.757,0.51-2.335,1.531c-0.577,1.021-0.866,2.999-0.866,5.935c0,2.624,0.266,4.428,0.796,5.411
	c0.531,0.983,1.328,1.476,2.39,1.476C144.793,18.163,145.797,16.737,146.1,13.884z"/>
<rect y="30.419" fill="#1C68A9" width="151.99" height="4.932"/>
</svg>
